<svg version="1.1" xmlns="http://www.w3.org/2000/svg" xmlns:xlink="http://www.w3.org/1999/xlink" width="941" height="747"><defs><clipPath id="wWafUNuxocNp"><path fill="none" stroke="none" d=" M 0 0 L 941 0 L 941 747 L 0 747 L 0 0 Z"/></clipPath></defs><g transform="scale(1,1)" clip-path="url(#wWafUNuxocNp)"><g><rect fill="rgb(255,255,255)" stroke="none" x="0" y="0" width="941" height="747" fill-opacity="1"/><path fill="none" stroke="rgb(0,0,0)" paint-order="fill stroke markers" d=" M 348.1200072670946 65.17554566490298 L 781.6991318152695 65.17554566490298" stroke-opacity="1" stroke-linecap="round" stroke-linejoin="round" stroke-miterlimit="10" stroke-width="3.5"/><path fill="none" stroke="rgb(0,0,0)" paint-order="fill stroke markers" d=" M 791.6991318152695 345.22829536368823 L 771.6991318152695 345.22829536368823" stroke-opacity="0.34901960784313724" stroke-linecap="round" stroke-linejoin="round" stroke-miterlimit="10" stroke-width="6.5"/><path fill="none" stroke="rgb(0,0,0)" paint-order="fill stroke markers" d=" M 791.6991318152695 354.22829536368823 L 771.6991318152695 354.22829536368823" stroke-opacity="0.34901960784313724" stroke-linecap="round" stroke-linejoin="round" stroke-miterlimit="10" stroke-width="6.5"/><path fill="none" stroke="rgb(0,0,0)" paint-order="fill stroke markers" d=" M 791.6991318152695 363.22829536368823 L 771.6991318152695 363.22829536368823" stroke-opacity="0.34901960784313724" stroke-linecap="round" stroke-linejoin="round" stroke-miterlimit="10" stroke-width="6.5"/><path fill="none" stroke="rgb(0,0,0)" paint-order="fill stroke markers" d=" M 781.6991318152695 65.17554566490298 L 781.6991318152695 643.2810450624735" stroke-opacity="0.34901960784313724" stroke-linecap="round" stroke-linejoin="round" stroke-miterlimit="10" stroke-width="6.5"/><path fill="none" stroke="rgb(0,0,0)" paint-order="fill stroke markers" d=" M 781.6991318152695 643.2810450624735 L 348.1200072670946 643.2810450624735" stroke-opacity="1" stroke-linecap="round" stroke-linejoin="round" stroke-miterlimit="10" stroke-width="3.5"/><path fill="none" stroke="rgb(0,0,0)" paint-order="fill stroke markers" d=" M 348.1200072670946 643.2810450624735 L 348.1200072670946 65.17554566490298" stroke-opacity="1" stroke-linecap="round" stroke-linejoin="round" stroke-miterlimit="10" stroke-width="3.5"/><path fill="none" stroke="rgb(0,0,0)" paint-order="fill stroke markers" d=" M 492.6463821164862 65.17554566490298 L 492.6463821164862 643.2810450624735" stroke-opacity="1" stroke-linecap="round" stroke-linejoin="round" stroke-miterlimit="10" stroke-width="3.5"/><path fill="none" stroke="rgb(0,0,0)" paint-order="fill stroke markers" d=" M 637.1727569658779 65.17554566490298 L 637.1727569658779 643.2810450624735" stroke-opacity="1" stroke-linecap="round" stroke-linejoin="round" stroke-miterlimit="10" stroke-width="3.5"/><path fill="none" stroke="rgb(0,0,0)" paint-order="fill stroke markers" d=" M 348.1200072670946 209.70192051429558 L 781.6991318152695 209.70192051429558" stroke-opacity="1" stroke-linecap="round" stroke-linejoin="round" stroke-miterlimit="10" stroke-width="3.5"/><text fill="rgb(0,0,0)" stroke="none" font-family="geogebra-sans-serif, sans-serif" font-size="16px" font-style="normal" font-weight="normal" text-decoration="normal" x="564" y="370" text-anchor="start" dominant-baseline="alphabetic" fill-opacity="1">i</text><text fill="none" stroke="rgb(255,255,255)" font-family="geogebra-sans-serif, sans-serif" font-size="16px" font-style="normal" font-weight="normal" text-decoration="normal" x="564" y="370" text-anchor="start" dominant-baseline="alphabetic" stroke-opacity="1" stroke-linejoin="bevel" stroke-miterlimit="10" stroke-width="3">i</text><text fill="rgb(0,0,0)" stroke="none" font-family="geogebra-sans-serif, sans-serif" font-size="16px" font-style="normal" font-weight="normal" text-decoration="normal" x="564" y="370" text-anchor="start" dominant-baseline="alphabetic" fill-opacity="1">i</text><path fill="none" stroke="rgb(0,0,0)" paint-order="fill stroke markers" d=" M 348.1200072670946 354.22829536368823 L 781.6991318152695 354.22829536368823" stroke-opacity="1" stroke-linecap="round" stroke-linejoin="round" stroke-miterlimit="10" stroke-width="3.5"/><path fill="none" stroke="rgb(0,0,0)" paint-order="fill stroke markers" d=" M 348.1200072670946 498.75467021308083 L 781.6991318152695 498.75467021308083" stroke-opacity="1" stroke-linecap="round" stroke-linejoin="round" stroke-miterlimit="10" stroke-width="3.5"/><path fill="none" stroke="rgb(0,0,0)" paint-order="fill stroke markers" d=" M 348.1200072670946 137.43873308959928 L 781.6991318152695 137.43873308959928" stroke-opacity="0.6980392156862745" stroke-linejoin="round" stroke-miterlimit="10" stroke-width="2.5" stroke-dasharray="10.5,8"/><text fill="rgb(0,0,0)" stroke="none" font-family="geogebra-sans-serif, sans-serif" font-size="16px" font-style="normal" font-weight="normal" text-decoration="normal" x="564" y="297" text-anchor="start" dominant-baseline="alphabetic" fill-opacity="1">l</text><text fill="none" stroke="rgb(255,255,255)" font-family="geogebra-sans-serif, sans-serif" font-size="16px" font-style="normal" font-weight="normal" text-decoration="normal" x="564" y="297" text-anchor="start" dominant-baseline="alphabetic" stroke-opacity="1" stroke-linejoin="bevel" stroke-miterlimit="10" stroke-width="3">l</text><text fill="rgb(0,0,0)" stroke="none" font-family="geogebra-sans-serif, sans-serif" font-size="16px" font-style="normal" font-weight="normal" text-decoration="normal" x="564" y="297" text-anchor="start" dominant-baseline="alphabetic" fill-opacity="1">l</text><path fill="none" stroke="rgb(0,0,0)" paint-order="fill stroke markers" d=" M 348.1200072670946 281.9651079389919 L 781.6991318152695 281.9651079389919" stroke-opacity="0.6980392156862745" stroke-linejoin="round" stroke-miterlimit="10" stroke-width="2.5" stroke-dasharray="10.5,8"/><path fill="none" stroke="rgb(0,0,0)" paint-order="fill stroke markers" d=" M 348.1200072670946 426.49148278838453 L 781.6991318152695 426.49148278838453" stroke-opacity="0.6980392156862745" stroke-linejoin="round" stroke-miterlimit="10" stroke-width="2.5" stroke-dasharray="10.5,8"/><path fill="none" stroke="rgb(0,0,0)" paint-order="fill stroke markers" d=" M 348.1200072670946 571.0178576377772 L 781.6991318152695 571.0178576377772" stroke-opacity="0.6980392156862745" stroke-linejoin="round" stroke-miterlimit="10" stroke-width="2.5" stroke-dasharray="10.5,8"/><path fill="none" stroke="rgb(0,0,0)" paint-order="fill stroke markers" d=" M 420.38319469179044 65.17554566490298 L 420.38319469179044 643.2810450624735" stroke-opacity="0.6980392156862745" stroke-linejoin="round" stroke-miterlimit="10" stroke-width="2.5" stroke-dasharray="10.5,8"/><path fill="none" stroke="rgb(0,0,0)" paint-order="fill stroke markers" d=" M 564.909569541182 65.17554566490298 L 564.909569541182 643.2810450624735" stroke-opacity="0.6980392156862745" stroke-linejoin="round" stroke-miterlimit="10" stroke-width="2.5" stroke-dasharray="10.5,8"/><path fill="none" stroke="rgb(0,0,0)" paint-order="fill stroke markers" d=" M 709.4359443905737 65.17554566490298 L 709.4359443905737 643.2810450624735" stroke-opacity="0.6980392156862745" stroke-linejoin="round" stroke-miterlimit="10" stroke-width="2.5" stroke-dasharray="10.5,8"/><path fill="rgb(0,0,0)" stroke="none" paint-order="stroke fill markers" d=" M 425.38319469179044 137.43873308959928 C 425.38319469179044 140.20015683875326 423.1446184409444 142.43873308959928 420.38319469179044 142.43873308959928 C 417.6217709426365 142.43873308959928 415.38319469179044 140.20015683875326 415.38319469179044 137.43873308959928 C 415.38319469179044 134.6773093404453 417.6217709426365 132.43873308959928 420.38319469179044 132.43873308959928 C 423.1446184409444 132.43873308959928 425.38319469179044 134.6773093404453 425.38319469179044 137.43873308959928 Z" fill-opacity="1"/><path fill="none" stroke="rgb(0,0,0)" paint-order="fill stroke markers" d=" M 425.38319469179044 137.43873308959928 C 425.38319469179044 140.20015683875326 423.1446184409444 142.43873308959928 420.38319469179044 142.43873308959928 C 417.6217709426365 142.43873308959928 415.38319469179044 140.20015683875326 415.38319469179044 137.43873308959928 C 415.38319469179044 134.6773093404453 417.6217709426365 132.43873308959928 420.38319469179044 132.43873308959928 C 423.1446184409444 132.43873308959928 425.38319469179044 134.6773093404453 425.38319469179044 137.43873308959928 Z" stroke-opacity="1" stroke-linecap="round" stroke-linejoin="round" stroke-miterlimit="10"/><text fill="rgb(0,0,0)" stroke="none" font-family="geogebra-sans-serif, sans-serif" font-size="32px" font-style="normal" font-weight="normal" text-decoration="normal" x="424" y="127" text-anchor="start" dominant-baseline="alphabetic" fill-opacity="1">4</text><path fill="rgb(0,0,0)" stroke="none" paint-order="stroke fill markers" d=" M 569.909569541182 137.43873308959928 C 569.909569541182 140.20015683875326 567.670993290336 142.43873308959928 564.909569541182 142.43873308959928 C 562.148145792028 142.43873308959928 559.909569541182 140.20015683875326 559.909569541182 137.43873308959928 C 559.909569541182 134.6773093404453 562.148145792028 132.43873308959928 564.909569541182 132.43873308959928 C 567.670993290336 132.43873308959928 569.909569541182 134.6773093404453 569.909569541182 137.43873308959928 Z" fill-opacity="1"/><path fill="none" stroke="rgb(0,0,0)" paint-order="fill stroke markers" d=" M 569.909569541182 137.43873308959928 C 569.909569541182 140.20015683875326 567.670993290336 142.43873308959928 564.909569541182 142.43873308959928 C 562.148145792028 142.43873308959928 559.909569541182 140.20015683875326 559.909569541182 137.43873308959928 C 559.909569541182 134.6773093404453 562.148145792028 132.43873308959928 564.909569541182 132.43873308959928 C 567.670993290336 132.43873308959928 569.909569541182 134.6773093404453 569.909569541182 137.43873308959928 Z" stroke-opacity="1" stroke-linecap="round" stroke-linejoin="round" stroke-miterlimit="10"/><text fill="rgb(0,0,0)" stroke="none" font-family="geogebra-sans-serif, sans-serif" font-size="32px" font-style="normal" font-weight="normal" text-decoration="normal" x="569" y="127" text-anchor="start" dominant-baseline="alphabetic" fill-opacity="1">8</text><path fill="rgb(0,0,0)" stroke="none" paint-order="stroke fill markers" d=" M 569.909569541182 281.9651079389919 C 569.909569541182 284.7265316881458 567.670993290336 286.9651079389919 564.909569541182 286.9651079389919 C 562.148145792028 286.9651079389919 559.909569541182 284.7265316881458 559.909569541182 281.9651079389919 C 559.909569541182 279.20368418983793 562.148145792028 276.9651079389919 564.909569541182 276.9651079389919 C 567.670993290336 276.9651079389919 569.909569541182 279.20368418983793 569.909569541182 281.9651079389919 Z" fill-opacity="1"/><path fill="none" stroke="rgb(0,0,0)" paint-order="fill stroke markers" d=" M 569.909569541182 281.9651079389919 C 569.909569541182 284.7265316881458 567.670993290336 286.9651079389919 564.909569541182 286.9651079389919 C 562.148145792028 286.9651079389919 559.909569541182 284.7265316881458 559.909569541182 281.9651079389919 C 559.909569541182 279.20368418983793 562.148145792028 276.9651079389919 564.909569541182 276.9651079389919 C 567.670993290336 276.9651079389919 569.909569541182 279.20368418983793 569.909569541182 281.9651079389919 Z" stroke-opacity="1" stroke-linecap="round" stroke-linejoin="round" stroke-miterlimit="10"/><text fill="rgb(0,0,0)" stroke="none" font-family="geogebra-sans-serif, sans-serif" font-size="32px" font-style="normal" font-weight="normal" text-decoration="normal" x="569" y="272" text-anchor="start" dominant-baseline="alphabetic" fill-opacity="1">7</text><path fill="rgb(0,0,0)" stroke="none" paint-order="stroke fill markers" d=" M 425.38319469179044 281.9651079389919 C 425.38319469179044 284.7265316881458 423.1446184409444 286.9651079389919 420.38319469179044 286.9651079389919 C 417.6217709426365 286.9651079389919 415.38319469179044 284.7265316881458 415.38319469179044 281.9651079389919 C 415.38319469179044 279.20368418983793 417.6217709426365 276.9651079389919 420.38319469179044 276.9651079389919 C 423.1446184409444 276.9651079389919 425.38319469179044 279.20368418983793 425.38319469179044 281.9651079389919 Z" fill-opacity="1"/><path fill="none" stroke="rgb(0,0,0)" paint-order="fill stroke markers" d=" M 425.38319469179044 281.9651079389919 C 425.38319469179044 284.7265316881458 423.1446184409444 286.9651079389919 420.38319469179044 286.9651079389919 C 417.6217709426365 286.9651079389919 415.38319469179044 284.7265316881458 415.38319469179044 281.9651079389919 C 415.38319469179044 279.20368418983793 417.6217709426365 276.9651079389919 420.38319469179044 276.9651079389919 C 423.1446184409444 276.9651079389919 425.38319469179044 279.20368418983793 425.38319469179044 281.9651079389919 Z" stroke-opacity="1" stroke-linecap="round" stroke-linejoin="round" stroke-miterlimit="10"/><text fill="rgb(0,0,0)" stroke="none" font-family="geogebra-sans-serif, sans-serif" font-size="32px" font-style="normal" font-weight="normal" text-decoration="normal" x="424" y="272" text-anchor="start" dominant-baseline="alphabetic" fill-opacity="1">3</text><path fill="rgb(0,0,0)" stroke="none" paint-order="stroke fill markers" d=" M 714.4359443905737 137.43873308959928 C 714.4359443905737 140.20015683875326 712.1973681397277 142.43873308959928 709.4359443905737 142.43873308959928 C 706.6745206414197 142.43873308959928 704.4359443905737 140.20015683875326 704.4359443905737 137.43873308959928 C 704.4359443905737 134.6773093404453 706.6745206414197 132.43873308959928 709.4359443905737 132.43873308959928 C 712.1973681397277 132.43873308959928 714.4359443905737 134.6773093404453 714.4359443905737 137.43873308959928 Z" fill-opacity="1"/><path fill="none" stroke="rgb(0,0,0)" paint-order="fill stroke markers" d=" M 714.4359443905737 137.43873308959928 C 714.4359443905737 140.20015683875326 712.1973681397277 142.43873308959928 709.4359443905737 142.43873308959928 C 706.6745206414197 142.43873308959928 704.4359443905737 140.20015683875326 704.4359443905737 137.43873308959928 C 704.4359443905737 134.6773093404453 706.6745206414197 132.43873308959928 709.4359443905737 132.43873308959928 C 712.1973681397277 132.43873308959928 714.4359443905737 134.6773093404453 714.4359443905737 137.43873308959928 Z" stroke-opacity="1" stroke-linecap="round" stroke-linejoin="round" stroke-miterlimit="10"/><text fill="rgb(0,0,0)" stroke="none" font-family="geogebra-sans-serif, sans-serif" font-size="32px" font-style="normal" font-weight="normal" text-decoration="normal" x="713" y="127" text-anchor="start" dominant-baseline="alphabetic" fill-opacity="1">12</text><path fill="rgb(0,0,0)" stroke="none" paint-order="stroke fill markers" d=" M 714.4359443905737 281.9651079389919 C 714.4359443905737 284.7265316881458 712.1973681397277 286.9651079389919 709.4359443905737 286.9651079389919 C 706.6745206414197 286.9651079389919 704.4359443905737 284.7265316881458 704.4359443905737 281.9651079389919 C 704.4359443905737 279.20368418983793 706.6745206414197 276.9651079389919 709.4359443905737 276.9651079389919 C 712.1973681397277 276.9651079389919 714.4359443905737 279.20368418983793 714.4359443905737 281.9651079389919 Z" fill-opacity="1"/><path fill="none" stroke="rgb(0,0,0)" paint-order="fill stroke markers" d=" M 714.4359443905737 281.9651079389919 C 714.4359443905737 284.7265316881458 712.1973681397277 286.9651079389919 709.4359443905737 286.9651079389919 C 706.6745206414197 286.9651079389919 704.4359443905737 284.7265316881458 704.4359443905737 281.9651079389919 C 704.4359443905737 279.20368418983793 706.6745206414197 276.9651079389919 709.4359443905737 276.9651079389919 C 712.1973681397277 276.9651079389919 714.4359443905737 279.20368418983793 714.4359443905737 281.9651079389919 Z" stroke-opacity="1" stroke-linecap="round" stroke-linejoin="round" stroke-miterlimit="10"/><text fill="rgb(0,0,0)" stroke="none" font-family="geogebra-sans-serif, sans-serif" font-size="32px" font-style="normal" font-weight="normal" text-decoration="normal" x="713" y="272" text-anchor="start" dominant-baseline="alphabetic" fill-opacity="1">11</text><path fill="rgb(0,0,0)" stroke="none" paint-order="stroke fill markers" d=" M 425.38319469179044 426.49148278838453 C 425.38319469179044 429.2529065375385 423.1446184409444 431.49148278838453 420.38319469179044 431.49148278838453 C 417.6217709426365 431.49148278838453 415.38319469179044 429.2529065375385 415.38319469179044 426.49148278838453 C 415.38319469179044 423.7300590392306 417.6217709426365 421.49148278838453 420.38319469179044 421.49148278838453 C 423.1446184409444 421.49148278838453 425.38319469179044 423.7300590392306 425.38319469179044 426.49148278838453 Z" fill-opacity="1"/><path fill="none" stroke="rgb(0,0,0)" paint-order="fill stroke markers" d=" M 425.38319469179044 426.49148278838453 C 425.38319469179044 429.2529065375385 423.1446184409444 431.49148278838453 420.38319469179044 431.49148278838453 C 417.6217709426365 431.49148278838453 415.38319469179044 429.2529065375385 415.38319469179044 426.49148278838453 C 415.38319469179044 423.7300590392306 417.6217709426365 421.49148278838453 420.38319469179044 421.49148278838453 C 423.1446184409444 421.49148278838453 425.38319469179044 423.7300590392306 425.38319469179044 426.49148278838453 Z" stroke-opacity="1" stroke-linecap="round" stroke-linejoin="round" stroke-miterlimit="10"/><text fill="rgb(0,0,0)" stroke="none" font-family="geogebra-sans-serif, sans-serif" font-size="32px" font-style="normal" font-weight="normal" text-decoration="normal" x="424" y="416" text-anchor="start" dominant-baseline="alphabetic" fill-opacity="1">2</text><path fill="rgb(0,0,0)" stroke="none" paint-order="stroke fill markers" d=" M 569.909569541182 426.49148278838453 C 569.909569541182 429.2529065375385 567.670993290336 431.49148278838453 564.909569541182 431.49148278838453 C 562.148145792028 431.49148278838453 559.909569541182 429.2529065375385 559.909569541182 426.49148278838453 C 559.909569541182 423.7300590392306 562.148145792028 421.49148278838453 564.909569541182 421.49148278838453 C 567.670993290336 421.49148278838453 569.909569541182 423.7300590392306 569.909569541182 426.49148278838453 Z" fill-opacity="1"/><path fill="none" stroke="rgb(0,0,0)" paint-order="fill stroke markers" d=" M 569.909569541182 426.49148278838453 C 569.909569541182 429.2529065375385 567.670993290336 431.49148278838453 564.909569541182 431.49148278838453 C 562.148145792028 431.49148278838453 559.909569541182 429.2529065375385 559.909569541182 426.49148278838453 C 559.909569541182 423.7300590392306 562.148145792028 421.49148278838453 564.909569541182 421.49148278838453 C 567.670993290336 421.49148278838453 569.909569541182 423.7300590392306 569.909569541182 426.49148278838453 Z" stroke-opacity="1" stroke-linecap="round" stroke-linejoin="round" stroke-miterlimit="10"/><text fill="rgb(0,0,0)" stroke="none" font-family="geogebra-sans-serif, sans-serif" font-size="32px" font-style="normal" font-weight="normal" text-decoration="normal" x="569" y="416" text-anchor="start" dominant-baseline="alphabetic" fill-opacity="1">6</text><path fill="rgb(0,0,0)" stroke="none" paint-order="stroke fill markers" d=" M 714.4359443905737 426.49148278838453 C 714.4359443905737 429.2529065375385 712.1973681397277 431.49148278838453 709.4359443905737 431.49148278838453 C 706.6745206414197 431.49148278838453 704.4359443905737 429.2529065375385 704.4359443905737 426.49148278838453 C 704.4359443905737 423.7300590392306 706.6745206414197 421.49148278838453 709.4359443905737 421.49148278838453 C 712.1973681397277 421.49148278838453 714.4359443905737 423.7300590392306 714.4359443905737 426.49148278838453 Z" fill-opacity="1"/><path fill="none" stroke="rgb(0,0,0)" paint-order="fill stroke markers" d=" M 714.4359443905737 426.49148278838453 C 714.4359443905737 429.2529065375385 712.1973681397277 431.49148278838453 709.4359443905737 431.49148278838453 C 706.6745206414197 431.49148278838453 704.4359443905737 429.2529065375385 704.4359443905737 426.49148278838453 C 704.4359443905737 423.7300590392306 706.6745206414197 421.49148278838453 709.4359443905737 421.49148278838453 C 712.1973681397277 421.49148278838453 714.4359443905737 423.7300590392306 714.4359443905737 426.49148278838453 Z" stroke-opacity="1" stroke-linecap="round" stroke-linejoin="round" stroke-miterlimit="10"/><text fill="rgb(0,0,0)" stroke="none" font-family="geogebra-sans-serif, sans-serif" font-size="32px" font-style="normal" font-weight="normal" text-decoration="normal" x="713" y="416" text-anchor="start" dominant-baseline="alphabetic" fill-opacity="1">10</text><path fill="rgb(0,0,0)" stroke="none" paint-order="stroke fill markers" d=" M 425.38319469179044 571.0178576377772 C 425.38319469179044 573.7792813869312 423.1446184409444 576.0178576377772 420.38319469179044 576.0178576377772 C 417.6217709426365 576.0178576377772 415.38319469179044 573.7792813869312 415.38319469179044 571.0178576377772 C 415.38319469179044 568.2564338886232 417.6217709426365 566.0178576377772 420.38319469179044 566.0178576377772 C 423.1446184409444 566.0178576377772 425.38319469179044 568.2564338886232 425.38319469179044 571.0178576377772 Z" fill-opacity="1"/><path fill="none" stroke="rgb(0,0,0)" paint-order="fill stroke markers" d=" M 425.38319469179044 571.0178576377772 C 425.38319469179044 573.7792813869312 423.1446184409444 576.0178576377772 420.38319469179044 576.0178576377772 C 417.6217709426365 576.0178576377772 415.38319469179044 573.7792813869312 415.38319469179044 571.0178576377772 C 415.38319469179044 568.2564338886232 417.6217709426365 566.0178576377772 420.38319469179044 566.0178576377772 C 423.1446184409444 566.0178576377772 425.38319469179044 568.2564338886232 425.38319469179044 571.0178576377772 Z" stroke-opacity="1" stroke-linecap="round" stroke-linejoin="round" stroke-miterlimit="10"/><text fill="rgb(0,0,0)" stroke="none" font-family="geogebra-sans-serif, sans-serif" font-size="32px" font-style="normal" font-weight="normal" text-decoration="normal" x="424" y="561" text-anchor="start" dominant-baseline="alphabetic" fill-opacity="1">1</text><path fill="rgb(0,0,0)" stroke="none" paint-order="stroke fill markers" d=" M 569.909569541182 571.0178576377772 C 569.909569541182 573.7792813869312 567.670993290336 576.0178576377772 564.909569541182 576.0178576377772 C 562.148145792028 576.0178576377772 559.909569541182 573.7792813869312 559.909569541182 571.0178576377772 C 559.909569541182 568.2564338886232 562.148145792028 566.0178576377772 564.909569541182 566.0178576377772 C 567.670993290336 566.0178576377772 569.909569541182 568.2564338886232 569.909569541182 571.0178576377772 Z" fill-opacity="1"/><path fill="none" stroke="rgb(0,0,0)" paint-order="fill stroke markers" d=" M 569.909569541182 571.0178576377772 C 569.909569541182 573.7792813869312 567.670993290336 576.0178576377772 564.909569541182 576.0178576377772 C 562.148145792028 576.0178576377772 559.909569541182 573.7792813869312 559.909569541182 571.0178576377772 C 559.909569541182 568.2564338886232 562.148145792028 566.0178576377772 564.909569541182 566.0178576377772 C 567.670993290336 566.0178576377772 569.909569541182 568.2564338886232 569.909569541182 571.0178576377772 Z" stroke-opacity="1" stroke-linecap="round" stroke-linejoin="round" stroke-miterlimit="10"/><text fill="rgb(0,0,0)" stroke="none" font-family="geogebra-sans-serif, sans-serif" font-size="32px" font-style="normal" font-weight="normal" text-decoration="normal" x="569" y="561" text-anchor="start" dominant-baseline="alphabetic" fill-opacity="1">5</text><path fill="rgb(0,0,0)" stroke="none" paint-order="stroke fill markers" d=" M 714.4359443905737 571.0178576377772 C 714.4359443905737 573.7792813869312 712.1973681397277 576.0178576377772 709.4359443905737 576.0178576377772 C 706.6745206414197 576.0178576377772 704.4359443905737 573.7792813869312 704.4359443905737 571.0178576377772 C 704.4359443905737 568.2564338886232 706.6745206414197 566.0178576377772 709.4359443905737 566.0178576377772 C 712.1973681397277 566.0178576377772 714.4359443905737 568.2564338886232 714.4359443905737 571.0178576377772 Z" fill-opacity="1"/><path fill="none" stroke="rgb(0,0,0)" paint-order="fill stroke markers" d=" M 714.4359443905737 571.0178576377772 C 714.4359443905737 573.7792813869312 712.1973681397277 576.0178576377772 709.4359443905737 576.0178576377772 C 706.6745206414197 576.0178576377772 704.4359443905737 573.7792813869312 704.4359443905737 571.0178576377772 C 704.4359443905737 568.2564338886232 706.6745206414197 566.0178576377772 709.4359443905737 566.0178576377772 C 712.1973681397277 566.0178576377772 714.4359443905737 568.2564338886232 714.4359443905737 571.0178576377772 Z" stroke-opacity="1" stroke-linecap="round" stroke-linejoin="round" stroke-miterlimit="10"/><text fill="rgb(0,0,0)" stroke="none" font-family="geogebra-sans-serif, sans-serif" font-size="32px" font-style="normal" font-weight="normal" text-decoration="normal" x="713" y="561" text-anchor="start" dominant-baseline="alphabetic" fill-opacity="1">9</text><g transform="scale(35,35) translate(0.9714285714285714,10.428571428571429) scale(0.1,0.1)"><text fill="rgb(0,0,0)" stroke="none" font-family="Serif" font-size="10px" font-style="normal" font-weight="normal" text-decoration="normal" x="0" y="0" text-anchor="start" dominant-baseline="alphabetic">热源</text><g transform="scale(10,10) translate(-0.9714285714285714,-10.428571428571429)"><g transform="translate(3.011428572024618,10.428571428571429)"><path fill="rgb(0,0,0)" stroke="none" paint-order="stroke fill markers" d=" M 0.452 -0.431 L 0.314 0.125 Q 0.31 0.14300000000000002 0.31 0.147 Q 0.31 0.158 0.323 0.161 L 0.323 0.161 Q 0.334 0.163 0.358 0.163 Q 0.382 0.163 0.384 0.17400000000000002 Q 0.384 0.194 0.366 0.194 L 0.264 0.191 L 0.263 0.191 L 0.164 0.194 L 0.163 0.194 Q 0.15 0.194 0.15 0.183 Q 0.158 0.164 0.17300000000000001 0.163 Q 0.225 0.162 0.23600000000000002 0.15 Q 0.241 0.14400000000000002 0.245 0.13 L 0.29 -0.049 Q 0.23 0.011 0.17200000000000001 0.011 Q 0.10200000000000001 0.011 0.065 -0.052000000000000005 Q 0.04 -0.093 0.04 -0.149 Q 0.04 -0.256 0.115 -0.34800000000000003 Q 0.184 -0.433 0.267 -0.441 Q 0.274 -0.442 0.281 -0.442 Q 0.34500000000000003 -0.442 0.374 -0.372 Q 0.395 -0.40800000000000003 0.428 -0.434 L 0.43 -0.435 Q 0.438 -0.441 0.442 -0.441 Q 0.452 -0.441 0.452 -0.431 M 0.17500000000000002 -0.011 Q 0.228 -0.011 0.28300000000000003 -0.076 Q 0.295 -0.091 0.302 -0.10300000000000001 Q 0.308 -0.111 0.356 -0.312 Q 0.36 -0.33 0.36 -0.332 Q 0.36 -0.354 0.342 -0.383 Q 0.32 -0.42 0.281 -0.42 Q 0.232 -0.42 0.188 -0.359 Q 0.17 -0.334 0.157 -0.304 Q 0.129 -0.234 0.115 -0.14300000000000002 Q 0.111 -0.12 0.111 -0.105 Q 0.111 -0.04 0.146 -0.019 L 0.147 -0.018000000000000002 Q 0.159 -0.011 0.17500000000000002 -0.011 Z"/></g><g transform="translate(3.7712063498023953,10.428571428571429)"><path fill="rgb(0,0,0)" stroke="none" paint-order="stroke fill markers" d=" M 0.687 -0.327 L 0.09 -0.327 Q 0.058 -0.327 0.056 -0.34700000000000003 Q 0.056 -0.367 0.089 -0.367 L 0.6880000000000001 -0.367 Q 0.72 -0.367 0.721 -0.34700000000000003 Q 0.721 -0.327 0.687 -0.327 M 0.6880000000000001 -0.133 L 0.089 -0.133 Q 0.057 -0.133 0.056 -0.153 Q 0.056 -0.17300000000000001 0.09 -0.17300000000000001 L 0.687 -0.17300000000000001 Q 0.719 -0.17300000000000001 0.721 -0.153 Q 0.721 -0.133 0.6880000000000001 -0.133 Z"/></g><g transform="translate(4.826984127580173,10.428571428571429)"><path fill="rgb(0,0,0)" stroke="none" paint-order="stroke fill markers" d=" M 0.449 -0.201 L 0.449 -0.201 Q 0.449 -0.098 0.372 -0.031 Q 0.31 0.022 0.231 0.022 Q 0.139 0.022 0.085 -0.055 Q 0.05 -0.10400000000000001 0.05 -0.161 Q 0.05 -0.20700000000000002 0.091 -0.213 Q 0.095 -0.214 0.099 -0.214 Q 0.136 -0.214 0.147 -0.181 Q 0.149 -0.17300000000000001 0.149 -0.165 Q 0.149 -0.133 0.121 -0.121 Q 0.111 -0.116 0.099 -0.116 Q 0.088 -0.116 0.082 -0.11800000000000001 Q 0.1 -0.055 0.159 -0.024 Q 0.192 -0.006 0.229 -0.006 Q 0.296 -0.006 0.336 -0.07100000000000001 Q 0.36 -0.113 0.36 -0.20800000000000002 Q 0.36 -0.292 0.342 -0.334 Q 0.314 -0.398 0.257 -0.398 Q 0.176 -0.398 0.128 -0.328 Q 0.122 -0.319 0.115 -0.319 Q 0.10200000000000001 -0.319 0.101 -0.333 L 0.101 -0.34500000000000003 L 0.101 -0.641 Q 0.101 -0.664 0.111 -0.665 Q 0.115 -0.665 0.123 -0.662 Q 0.186 -0.634 0.256 -0.634 Q 0.328 -0.634 0.392 -0.663 Q 0.397 -0.666 0.4 -0.666 Q 0.41000000000000003 -0.666 0.41000000000000003 -0.655 Q 0.41000000000000003 -0.642 0.378 -0.613 Q 0.31 -0.551 0.217 -0.551 Q 0.17500000000000002 -0.551 0.132 -0.5640000000000001 L 0.132 -0.369 Q 0.184 -0.42 0.259 -0.42 Q 0.34700000000000003 -0.42 0.404 -0.343 Q 0.449 -0.28200000000000003 0.449 -0.201 Z"/></g><g transform="translate(5.326984127580173,10.428571428571429)"><path fill="rgb(0,0,0)" stroke="none" paint-order="stroke fill markers" d=" M 0.46 -0.32 Q 0.46 -0.17400000000000002 0.423 -0.094 Q 0.364 0.018000000000000002 0.249 0.022 Q 0.158 0.022 0.10300000000000001 -0.05 Q 0.092 -0.063 0.084 -0.079 Q 0.039 -0.162 0.039 -0.32 Q 0.039 -0.467 0.076 -0.547 Q 0.126 -0.659 0.23800000000000002 -0.666 L 0.25 -0.666 Q 0.339 -0.666 0.395 -0.595 L 0.395 -0.594 Q 0.40900000000000003 -0.5760000000000001 0.42 -0.554 Q 0.46 -0.46900000000000003 0.46 -0.32 M 0.249 0 L 0.249 0 Q 0.312 0 0.34600000000000003 -0.061 Q 0.36 -0.088 0.366 -0.125 Q 0.377 -0.189 0.377 -0.332 Q 0.377 -0.47100000000000003 0.367 -0.527 Q 0.34900000000000003 -0.622 0.275 -0.641 Q 0.262 -0.644 0.249 -0.644 Q 0.179 -0.644 0.147 -0.5740000000000001 Q 0.136 -0.55 0.13 -0.516 Q 0.122 -0.462 0.122 -0.332 Q 0.122 -0.181 0.133 -0.121 Q 0.151 -0.025 0.221 -0.004 Q 0.23500000000000001 0 0.249 0 Z"/></g><g transform="translate(5.826984127580173,10.428571428571429)"><path fill="rgb(0,0,0)" stroke="none" paint-order="stroke fill markers" d=" M 0.46 -0.32 Q 0.46 -0.17400000000000002 0.423 -0.094 Q 0.364 0.018000000000000002 0.249 0.022 Q 0.158 0.022 0.10300000000000001 -0.05 Q 0.092 -0.063 0.084 -0.079 Q 0.039 -0.162 0.039 -0.32 Q 0.039 -0.467 0.076 -0.547 Q 0.126 -0.659 0.23800000000000002 -0.666 L 0.25 -0.666 Q 0.339 -0.666 0.395 -0.595 L 0.395 -0.594 Q 0.40900000000000003 -0.5760000000000001 0.42 -0.554 Q 0.46 -0.46900000000000003 0.46 -0.32 M 0.249 0 L 0.249 0 Q 0.312 0 0.34600000000000003 -0.061 Q 0.36 -0.088 0.366 -0.125 Q 0.377 -0.189 0.377 -0.332 Q 0.377 -0.47100000000000003 0.367 -0.527 Q 0.34900000000000003 -0.622 0.275 -0.641 Q 0.262 -0.644 0.249 -0.644 Q 0.179 -0.644 0.147 -0.5740000000000001 Q 0.136 -0.55 0.13 -0.516 Q 0.122 -0.462 0.122 -0.332 Q 0.122 -0.181 0.133 -0.121 Q 0.151 -0.025 0.221 -0.004 Q 0.23500000000000001 0 0.249 0 Z"/></g><g transform="translate(6.326984127580173,10.428571428571429)"><path fill="rgb(0,0,0)" stroke="none" paint-order="stroke fill markers" d=" M 0.28700000000000003 -0.263 L 0.41400000000000003 -0.084 Q 0.448 -0.037 0.483 -0.032 Q 0.492 -0.031 0.511 -0.031 L 0.511 0 Q 0.468 -0.003 0.424 -0.003 Q 0.4 -0.003 0.316 0 L 0.316 -0.031 Q 0.352 -0.031 0.352 -0.054 Q 0.352 -0.07 0.271 -0.182 Q 0.303 -0.137 0.23500000000000001 -0.231 L 0.233 -0.234 L 0.169 -0.179 L 0.169 -0.076 Q 0.169 -0.042 0.185 -0.036000000000000004 Q 0.196 -0.031 0.247 -0.031 L 0.247 0 Q 0.187 -0.003 0.137 -0.003 Q 0.127 -0.003 0.028 0 L 0.028 -0.031 Q 0.08700000000000001 -0.031 0.097 -0.04 L 0.099 -0.042 Q 0.106 -0.05 0.106 -0.076 L 0.106 -0.596 Q 0.106 -0.635 0.092 -0.644 L 0.091 -0.644 Q 0.08 -0.65 0.053 -0.652 L 0.028 -0.652 L 0.028 -0.683 L 0.17200000000000001 -0.6940000000000001 L 0.17200000000000001 -0.214 L 0.313 -0.336 Q 0.335 -0.355 0.335 -0.375 Q 0.335 -0.395 0.312 -0.399 Q 0.309 -0.4 0.306 -0.4 L 0.306 -0.431 Q 0.34800000000000003 -0.428 0.418 -0.428 Q 0.459 -0.428 0.488 -0.431 L 0.488 -0.4 Q 0.425 -0.397 0.362 -0.34600000000000003 Q 0.305 -0.301 0.28300000000000003 -0.277 L 0.28200000000000003 -0.276 L 0.281 -0.274 L 0.28700000000000003 -0.263 Z"/></g><g transform="translate(6.854984127580172,10.428571428571429)"><path fill="rgb(0,0,0)" stroke="none" paint-order="stroke fill markers" d=" M 0.909 -0.585 L 0.718 0.002 Q 0.707 0.02 0.6980000000000001 0.022 Q 0.685 0.022 0.679 0.003 L 0.513 -0.506 L 0.34800000000000003 0.002 Q 0.337 0.02 0.328 0.022 Q 0.315 0.022 0.309 0.003 L 0.109 -0.61 Q 0.1 -0.639 0.08700000000000001 -0.645 Q 0.07200000000000001 -0.652 0.018000000000000002 -0.652 L 0.018000000000000002 -0.683 Q 0.14100000000000001 -0.68 0.14 -0.68 Q 0.246 -0.68 0.28200000000000003 -0.683 L 0.28200000000000003 -0.652 Q 0.198 -0.652 0.198 -0.622 Q 0.198 -0.615 0.2 -0.609 L 0.361 -0.117 L 0.5 -0.546 L 0.47800000000000004 -0.616 Q 0.468 -0.645 0.441 -0.65 Q 0.428 -0.652 0.388 -0.652 L 0.388 -0.683 Q 0.511 -0.68 0.51 -0.68 Q 0.616 -0.68 0.652 -0.683 L 0.652 -0.652 Q 0.5680000000000001 -0.652 0.5680000000000001 -0.622 Q 0.5680000000000001 -0.619 0.5710000000000001 -0.607 L 0.731 -0.117 L 0.881 -0.579 Q 0.886 -0.594 0.886 -0.599 Q 0.886 -0.626 0.853 -0.641 Q 0.8310000000000001 -0.652 0.799 -0.652 L 0.799 -0.683 Q 0.877 -0.68 0.918 -0.68 Q 0.964 -0.68 1.0090000000000001 -0.683 L 1.0090000000000001 -0.652 Q 0.93 -0.652 0.909 -0.585 Z"/></g><g transform="translate(7.896984127580172,10.428571428571429)"><path fill="rgb(0,0,0)" stroke="none" paint-order="stroke fill markers" d=" M 0.439 -0.712 L 0.097 0.226 Q 0.089 0.247 0.081 0.249 L 0.08 0.25 L 0.075 0.25 Q 0.059000000000000004 0.25 0.056 0.23500000000000001 Q 0.055 0.232 0.055 0.23 Q 0.055 0.225 0.06 0.212 L 0.40700000000000003 -0.741 Q 0.41200000000000003 -0.75 0.424 -0.75 Q 0.44 -0.75 0.443 -0.735 Q 0.444 -0.732 0.444 -0.73 Q 0.444 -0.725 0.439 -0.712 Z"/></g><g transform="translate(8.396984127580172,10.428571428571429)"><path fill="rgb(0,0,0)" stroke="none" paint-order="stroke fill markers" d=" M 0.11 -0.34400000000000003 Q 0.11 -0.383 0.095 -0.392 Q 0.083 -0.399 0.052000000000000005 -0.4 L 0.032 -0.4 L 0.032 -0.431 L 0.17300000000000001 -0.442 L 0.17300000000000001 -0.337 Q 0.22 -0.442 0.321 -0.442 Q 0.438 -0.442 0.454 -0.34400000000000003 Q 0.484 -0.41200000000000003 0.548 -0.434 Q 0.5720000000000001 -0.442 0.599 -0.442 Q 0.674 -0.442 0.704 -0.405 Q 0.731 -0.374 0.734 -0.32 Q 0.735 -0.301 0.735 -0.252 L 0.735 -0.061 Q 0.736 -0.037 0.764 -0.033 Q 0.776 -0.031 0.8130000000000001 -0.031 L 0.8130000000000001 0 Q 0.711 -0.003 0.7010000000000001 -0.003 Q 0.6930000000000001 -0.003 0.588 0 L 0.588 -0.031 Q 0.647 -0.031 0.657 -0.04 L 0.659 -0.042 Q 0.666 -0.05 0.666 -0.076 L 0.666 -0.309 Q 0.666 -0.40800000000000003 0.609 -0.418 Q 0.601 -0.42 0.592 -0.42 Q 0.531 -0.42 0.49 -0.367 Q 0.457 -0.324 0.457 -0.26 L 0.457 -0.076 Q 0.457 -0.042 0.47300000000000003 -0.036000000000000004 Q 0.484 -0.031 0.535 -0.031 L 0.535 0 Q 0.433 -0.003 0.423 -0.003 Q 0.41500000000000004 -0.003 0.31 0 L 0.31 -0.031 Q 0.369 -0.031 0.379 -0.04 L 0.381 -0.042 Q 0.388 -0.05 0.388 -0.076 L 0.388 -0.309 Q 0.388 -0.40800000000000003 0.331 -0.418 Q 0.323 -0.42 0.314 -0.42 Q 0.253 -0.42 0.212 -0.367 Q 0.179 -0.324 0.179 -0.26 L 0.179 -0.076 Q 0.179 -0.042 0.195 -0.036000000000000004 Q 0.20600000000000002 -0.031 0.257 -0.031 L 0.257 0 Q 0.155 -0.003 0.145 -0.003 Q 0.137 -0.003 0.032 0 L 0.032 -0.031 Q 0.091 -0.031 0.101 -0.04 L 0.10300000000000001 -0.042 Q 0.11 -0.05 0.11 -0.076 L 0.11 -0.34400000000000003 Z"/></g><g transform="translate(9.229984127580172,10.01567942857143) scale(0.7,0.7)"><path fill="rgb(0,0,0)" stroke="none" paint-order="stroke fill markers" d=" M 0.449 -0.17400000000000002 L 0.449 -0.17400000000000002 L 0.421 0 L 0.05 0 Q 0.05 -0.025 0.056 -0.032 L 0.061 -0.037 L 0.253 -0.251 Q 0.358 -0.369 0.358 -0.47200000000000003 Q 0.358 -0.561 0.304 -0.607 L 0.303 -0.608 L 0.302 -0.608 Q 0.27 -0.635 0.224 -0.635 Q 0.152 -0.635 0.109 -0.5730000000000001 Q 0.097 -0.555 0.089 -0.533 Q 0.092 -0.534 0.10200000000000001 -0.534 Q 0.14200000000000002 -0.534 0.153 -0.498 L 0.153 -0.497 Q 0.155 -0.49 0.155 -0.482 Q 0.155 -0.442 0.117 -0.431 Q 0.109 -0.429 0.10300000000000001 -0.429 Q 0.066 -0.429 0.054 -0.46 Q 0.05 -0.47100000000000003 0.05 -0.485 Q 0.05 -0.562 0.109 -0.617 Q 0.162 -0.666 0.23700000000000002 -0.666 Q 0.34700000000000003 -0.666 0.40800000000000003 -0.592 Q 0.443 -0.549 0.448 -0.49 Q 0.449 -0.481 0.449 -0.47200000000000003 Q 0.449 -0.399 0.394 -0.333 Q 0.365 -0.299 0.304 -0.243 L 0.243 -0.189 L 0.233 -0.18 L 0.127 -0.077 L 0.307 -0.077 Q 0.395 -0.077 0.402 -0.085 Q 0.41200000000000003 -0.099 0.424 -0.17400000000000002 L 0.449 -0.17400000000000002 Z"/></g></g></g><g transform="scale(35,35) translate(12.714285714285714,1.3714285714285714) scale(0.1,0.1)"><text fill="rgb(0,0,0)" stroke="none" font-family="Serif" font-size="10px" font-style="normal" font-weight="normal" text-decoration="normal" x="0" y="0" text-anchor="start" dominant-baseline="alphabetic">温度</text><g transform="scale(10,10) translate(-12.714285714285714,-1.3714285714285714)"><g transform="translate(14.75428571488176,1.3714285714285714)"><path fill="rgb(0,0,0)" stroke="none" paint-order="stroke fill markers" d=" M 0.427 -0.607 L 0.294 -0.076 Q 0.29 -0.061 0.29 -0.055 Q 0.29 -0.04 0.306 -0.036000000000000004 L 0.307 -0.036000000000000004 Q 0.314 -0.034 0.327 -0.033 Q 0.353 -0.031 0.391 -0.031 Q 0.422 -0.031 0.424 -0.025 Q 0.425 -0.023 0.425 -0.02 Q 0.421 -0.001 0.403 0 L 0.317 -0.002 L 0.316 -0.002 L 0.23500000000000001 -0.003 L 0.233 -0.003 L 0.15 -0.002 L 0.148 -0.002 L 0.067 0 L 0.066 0 Q 0.049 0 0.049 -0.012 Q 0.049 -0.027 0.06 -0.03 Q 0.067 -0.031 0.091 -0.031 Q 0.18 -0.031 0.197 -0.048 Q 0.203 -0.054 0.20700000000000002 -0.066 Q 0.20700000000000002 -0.068 0.20800000000000002 -0.07100000000000001 L 0.20800000000000002 -0.073 L 0.209 -0.073 L 0.209 -0.074 Q 0.209 -0.075 0.21 -0.079 L 0.34400000000000003 -0.613 Q 0.34800000000000003 -0.625 0.34800000000000003 -0.634 Q 0.34800000000000003 -0.643 0.339 -0.645 Q 0.333 -0.646 0.32 -0.646 L 0.281 -0.646 Q 0.178 -0.646 0.14 -0.623 Q 0.11900000000000001 -0.611 0.10300000000000001 -0.586 L 0.10200000000000001 -0.585 L 0.10200000000000001 -0.584 L 0.101 -0.584 Q 0.08 -0.551 0.053 -0.47300000000000003 Q 0.046 -0.454 0.041 -0.453 Q 0.039 -0.452 0.036000000000000004 -0.452 Q 0.024 -0.452 0.024 -0.463 Q 0.024 -0.46900000000000003 0.03 -0.481 L 0.09 -0.657 Q 0.096 -0.674 0.10400000000000001 -0.676 Q 0.109 -0.677 0.122 -0.677 L 0.677 -0.677 Q 0.7020000000000001 -0.677 0.704 -0.666 Q 0.704 -0.657 0.7020000000000001 -0.649 L 0.675 -0.47500000000000003 Q 0.672 -0.454 0.66 -0.452 Q 0.648 -0.452 0.648 -0.465 Q 0.648 -0.47200000000000003 0.651 -0.484 Q 0.659 -0.536 0.659 -0.5640000000000001 Q 0.659 -0.622 0.618 -0.637 Q 0.592 -0.646 0.513 -0.646 Q 0.459 -0.646 0.45 -0.644 Q 0.437 -0.641 0.431 -0.622 L 0.431 -0.621 Q 0.429 -0.616 0.427 -0.607 Z"/></g><g transform="translate(15.477285714881761,1.5214285714285714) scale(0.7,0.7)"><path fill="rgb(0,0,0)" stroke="none" paint-order="stroke fill markers" d=" M 0.232 -0.67 L 0.585 -0.151 L 0.585 -0.578 Q 0.585 -0.621 0.558 -0.637 Q 0.532 -0.652 0.482 -0.652 L 0.482 -0.683 Q 0.587 -0.68 0.599 -0.68 Q 0.611 -0.68 0.716 -0.683 L 0.716 -0.652 Q 0.619 -0.652 0.614 -0.594 L 0.613 -0.593 L 0.613 -0.578 L 0.613 -0.026000000000000002 Q 0.613 -0.003 0.606 -0.001 L 0.605 -0.001 Q 0.602 0 0.599 0 Q 0.592 0 0.582 -0.013000000000000001 L 0.17400000000000002 -0.613 Q 0.17 -0.619 0.164 -0.625 L 0.164 -0.105 Q 0.164 -0.062 0.191 -0.046 Q 0.217 -0.031 0.267 -0.031 L 0.267 0 Q 0.162 -0.003 0.15 -0.003 Q 0.138 -0.003 0.033 0 L 0.033 -0.031 Q 0.13 -0.031 0.135 -0.089 Q 0.136 -0.095 0.136 -0.105 L 0.136 -0.627 Q 0.136 -0.644 0.128 -0.647 L 0.128 -0.647 Q 0.124 -0.648 0.112 -0.65 Q 0.082 -0.652 0.062 -0.652 L 0.033 -0.652 L 0.033 -0.683 L 0.203 -0.683 Q 0.222 -0.683 0.228 -0.675 L 0.229 -0.674 L 0.229 -0.674 L 0.23 -0.673 L 0.231 -0.672 L 0.232 -0.67 Z"/></g><g transform="translate(16.28006349265954,1.3714285714285714)"><path fill="rgb(0,0,0)" stroke="none" paint-order="stroke fill markers" d=" M 0.687 -0.327 L 0.09 -0.327 Q 0.058 -0.327 0.056 -0.34700000000000003 Q 0.056 -0.367 0.089 -0.367 L 0.6880000000000001 -0.367 Q 0.72 -0.367 0.721 -0.34700000000000003 Q 0.721 -0.327 0.687 -0.327 M 0.6880000000000001 -0.133 L 0.089 -0.133 Q 0.057 -0.133 0.056 -0.153 Q 0.056 -0.17300000000000001 0.09 -0.17300000000000001 L 0.687 -0.17300000000000001 Q 0.719 -0.17300000000000001 0.721 -0.153 Q 0.721 -0.133 0.6880000000000001 -0.133 Z"/></g><g transform="translate(17.335841270437317,1.3714285714285714)"><path fill="rgb(0,0,0)" stroke="none" paint-order="stroke fill markers" d=" M 0.294 -0.64 L 0.294 -0.079 Q 0.294 -0.049 0.306 -0.041 Q 0.323 -0.031 0.387 -0.031 L 0.419 -0.031 L 0.419 0 Q 0.384 -0.003 0.257 -0.003 Q 0.13 -0.003 0.095 0 L 0.095 -0.031 L 0.127 -0.031 Q 0.20400000000000001 -0.031 0.215 -0.049 L 0.216 -0.05 Q 0.22 -0.058 0.22 -0.079 L 0.22 -0.597 Q 0.168 -0.5710000000000001 0.089 -0.5710000000000001 L 0.089 -0.602 Q 0.209 -0.602 0.271 -0.666 Q 0.29 -0.666 0.293 -0.659 L 0.293 -0.659 L 0.293 -0.658 Q 0.294 -0.655 0.294 -0.64 Z"/></g><g transform="translate(17.835841270437317,1.3714285714285714)"><path fill="rgb(0,0,0)" stroke="none" paint-order="stroke fill markers" d=" M 0.46 -0.32 Q 0.46 -0.17400000000000002 0.423 -0.094 Q 0.364 0.018000000000000002 0.249 0.022 Q 0.158 0.022 0.10300000000000001 -0.05 Q 0.092 -0.063 0.084 -0.079 Q 0.039 -0.162 0.039 -0.32 Q 0.039 -0.467 0.076 -0.547 Q 0.126 -0.659 0.23800000000000002 -0.666 L 0.25 -0.666 Q 0.339 -0.666 0.395 -0.595 L 0.395 -0.594 Q 0.40900000000000003 -0.5760000000000001 0.42 -0.554 Q 0.46 -0.46900000000000003 0.46 -0.32 M 0.249 0 L 0.249 0 Q 0.312 0 0.34600000000000003 -0.061 Q 0.36 -0.088 0.366 -0.125 Q 0.377 -0.189 0.377 -0.332 Q 0.377 -0.47100000000000003 0.367 -0.527 Q 0.34900000000000003 -0.622 0.275 -0.641 Q 0.262 -0.644 0.249 -0.644 Q 0.179 -0.644 0.147 -0.5740000000000001 Q 0.136 -0.55 0.13 -0.516 Q 0.122 -0.462 0.122 -0.332 Q 0.122 -0.181 0.133 -0.121 Q 0.151 -0.025 0.221 -0.004 Q 0.23500000000000001 0 0.249 0 Z"/></g><g transform="translate(18.335841270437317,1.3714285714285714)"><path fill="rgb(0,0,0)" stroke="none" paint-order="stroke fill markers" d=" M 0.46 -0.32 Q 0.46 -0.17400000000000002 0.423 -0.094 Q 0.364 0.018000000000000002 0.249 0.022 Q 0.158 0.022 0.10300000000000001 -0.05 Q 0.092 -0.063 0.084 -0.079 Q 0.039 -0.162 0.039 -0.32 Q 0.039 -0.467 0.076 -0.547 Q 0.126 -0.659 0.23800000000000002 -0.666 L 0.25 -0.666 Q 0.339 -0.666 0.395 -0.595 L 0.395 -0.594 Q 0.40900000000000003 -0.5760000000000001 0.42 -0.554 Q 0.46 -0.46900000000000003 0.46 -0.32 M 0.249 0 L 0.249 0 Q 0.312 0 0.34600000000000003 -0.061 Q 0.36 -0.088 0.366 -0.125 Q 0.377 -0.189 0.377 -0.332 Q 0.377 -0.47100000000000003 0.367 -0.527 Q 0.34900000000000003 -0.622 0.275 -0.641 Q 0.262 -0.644 0.249 -0.644 Q 0.179 -0.644 0.147 -0.5740000000000001 Q 0.136 -0.55 0.13 -0.516 Q 0.122 -0.462 0.122 -0.332 Q 0.122 -0.181 0.133 -0.121 Q 0.151 -0.025 0.221 -0.004 Q 0.23500000000000001 0 0.249 0 Z"/></g><g transform="translate(18.835841270437317,0.9585365714285714) scale(0.7,0.7)"><path fill="rgb(0,0,0)" stroke="none" paint-order="stroke fill markers" d=" M 0.47100000000000003 -0.214 L 0.47100000000000003 -0.214 Q 0.47100000000000003 -0.111 0.395 -0.044 Q 0.332 0.011 0.249 0.011 Q 0.153 0.011 0.08700000000000001 -0.061 Q 0.028 -0.126 0.028 -0.214 Q 0.028 -0.316 0.101 -0.386 Q 0.164 -0.448 0.25 -0.448 Q 0.34700000000000003 -0.448 0.41300000000000003 -0.371 Q 0.47100000000000003 -0.304 0.47100000000000003 -0.214 M 0.25 -0.014 L 0.25 -0.014 Q 0.317 -0.014 0.356 -0.07 L 0.366 -0.088 Q 0.388 -0.132 0.388 -0.222 Q 0.388 -0.318 0.362 -0.361 Q 0.319 -0.423 0.249 -0.426 Q 0.187 -0.426 0.147 -0.376 Q 0.14 -0.368 0.135 -0.359 Q 0.111 -0.315 0.111 -0.222 Q 0.111 -0.125 0.136 -0.081 Q 0.178 -0.016 0.25 -0.014 Z"/></g><g transform="translate(19.20007361343589,1.3714285714285714)"><path fill="rgb(0,0,0)" stroke="none" paint-order="stroke fill markers" d=" M 0.665 -0.681 L 0.665 -0.444 Q 0.665 -0.423 0.659 -0.421 L 0.659 -0.421 Q 0.656 -0.42 0.649 -0.42 Q 0.636 -0.42 0.634 -0.429 Q 0.634 -0.431 0.633 -0.437 Q 0.614 -0.5760000000000001 0.525 -0.639 Q 0.47500000000000003 -0.674 0.41500000000000004 -0.674 Q 0.329 -0.674 0.262 -0.618 Q 0.246 -0.604 0.232 -0.588 L 0.231 -0.587 Q 0.159 -0.5 0.159 -0.341 Q 0.159 -0.111 0.306 -0.036000000000000004 Q 0.36 -0.009000000000000001 0.41600000000000004 -0.009000000000000001 Q 0.513 -0.009000000000000001 0.578 -0.08 Q 0.635 -0.14200000000000002 0.64 -0.234 Q 0.641 -0.249 0.652 -0.25 Q 0.665 -0.25 0.665 -0.233 Q 0.665 -0.14 0.598 -0.065 Q 0.521 0.022 0.404 0.022 Q 0.269 0.022 0.169 -0.074 Q 0.064 -0.17400000000000002 0.057 -0.322 Q 0.056 -0.332 0.056 -0.342 Q 0.056 -0.49 0.156 -0.596 Q 0.251 -0.6970000000000001 0.384 -0.704 Q 0.394 -0.705 0.404 -0.705 Q 0.496 -0.705 0.5710000000000001 -0.636 L 0.588 -0.619 L 0.638 -0.6930000000000001 Q 0.646 -0.705 0.654 -0.705 Q 0.664 -0.6960000000000001 0.665 -0.681 Z"/></g></g></g><g transform="scale(35,35) translate(23.4,10.485714285714286) scale(0.1,0.1)"><text fill="rgb(0,0,0)" stroke="none" font-family="Serif" font-size="10px" font-style="normal" font-weight="normal" text-decoration="normal" x="0" y="0" text-anchor="start" dominant-baseline="alphabetic">绝热</text><g transform="scale(10,10) translate(-23.4,-10.485714285714286)"/></g><g transform="scale(35,35) translate(12.17142857142857,19.942857142857143) scale(0.1,0.1)"><text fill="rgb(0,0,0)" stroke="none" font-family="Serif" font-size="10px" font-style="normal" font-weight="normal" text-decoration="normal" x="0" y="0" text-anchor="start" dominant-baseline="alphabetic">对流换热</text><g transform="scale(10,10) translate(-12.17142857142857,-19.942857142857143)"><g transform="translate(16.211428572024616,19.942857142857143)"><path fill="rgb(0,0,0)" stroke="none" paint-order="stroke fill markers" d=" M 0.427 -0.607 L 0.294 -0.076 Q 0.29 -0.061 0.29 -0.055 Q 0.29 -0.04 0.306 -0.036000000000000004 L 0.307 -0.036000000000000004 Q 0.314 -0.034 0.327 -0.033 Q 0.353 -0.031 0.391 -0.031 Q 0.422 -0.031 0.424 -0.025 Q 0.425 -0.023 0.425 -0.02 Q 0.421 -0.001 0.403 0 L 0.317 -0.002 L 0.316 -0.002 L 0.23500000000000001 -0.003 L 0.233 -0.003 L 0.15 -0.002 L 0.148 -0.002 L 0.067 0 L 0.066 0 Q 0.049 0 0.049 -0.012 Q 0.049 -0.027 0.06 -0.03 Q 0.067 -0.031 0.091 -0.031 Q 0.18 -0.031 0.197 -0.048 Q 0.203 -0.054 0.20700000000000002 -0.066 Q 0.20700000000000002 -0.068 0.20800000000000002 -0.07100000000000001 L 0.20800000000000002 -0.073 L 0.209 -0.073 L 0.209 -0.074 Q 0.209 -0.075 0.21 -0.079 L 0.34400000000000003 -0.613 Q 0.34800000000000003 -0.625 0.34800000000000003 -0.634 Q 0.34800000000000003 -0.643 0.339 -0.645 Q 0.333 -0.646 0.32 -0.646 L 0.281 -0.646 Q 0.178 -0.646 0.14 -0.623 Q 0.11900000000000001 -0.611 0.10300000000000001 -0.586 L 0.10200000000000001 -0.585 L 0.10200000000000001 -0.584 L 0.101 -0.584 Q 0.08 -0.551 0.053 -0.47300000000000003 Q 0.046 -0.454 0.041 -0.453 Q 0.039 -0.452 0.036000000000000004 -0.452 Q 0.024 -0.452 0.024 -0.463 Q 0.024 -0.46900000000000003 0.03 -0.481 L 0.09 -0.657 Q 0.096 -0.674 0.10400000000000001 -0.676 Q 0.109 -0.677 0.122 -0.677 L 0.677 -0.677 Q 0.7020000000000001 -0.677 0.704 -0.666 Q 0.704 -0.657 0.7020000000000001 -0.649 L 0.675 -0.47500000000000003 Q 0.672 -0.454 0.66 -0.452 Q 0.648 -0.452 0.648 -0.465 Q 0.648 -0.47200000000000003 0.651 -0.484 Q 0.659 -0.536 0.659 -0.5640000000000001 Q 0.659 -0.622 0.618 -0.637 Q 0.592 -0.646 0.513 -0.646 Q 0.459 -0.646 0.45 -0.644 Q 0.437 -0.641 0.431 -0.622 L 0.431 -0.621 Q 0.429 -0.616 0.427 -0.607 Z"/></g><g transform="translate(16.934428572024615,20.09285714285714) scale(0.7,0.7)"><path fill="rgb(0,0,0)" stroke="none" paint-order="stroke fill markers" d=" M 0.508 -0.272 Q 0.5670000000000001 -0.372 0.652 -0.41600000000000004 Q 0.7020000000000001 -0.442 0.754 -0.442 Q 0.85 -0.442 0.905 -0.353 Q 0.9430000000000001 -0.292 0.9430000000000001 -0.216 Q 0.9430000000000001 -0.112 0.879 -0.045 Q 0.8260000000000001 0.011 0.751 0.011 Q 0.663 0.011 0.581 -0.058 Q 0.559 -0.077 0.514 -0.131 L 0.491 -0.159 Q 0.432 -0.059000000000000004 0.34700000000000003 -0.015 Q 0.297 0.011 0.245 0.011 Q 0.149 0.011 0.094 -0.078 Q 0.056 -0.139 0.056 -0.215 Q 0.056 -0.319 0.12 -0.386 Q 0.17300000000000001 -0.442 0.248 -0.442 Q 0.336 -0.442 0.418 -0.373 Q 0.44 -0.354 0.485 -0.3 L 0.489 -0.295 Q 0.495 -0.28700000000000003 0.508 -0.272 M 0.534 -0.23700000000000002 L 0.63 -0.114 Q 0.631 -0.114 0.631 -0.113 L 0.635 -0.109 Q 0.7010000000000001 -0.037 0.767 -0.037 Q 0.839 -0.037 0.886 -0.10200000000000001 Q 0.921 -0.151 0.921 -0.216 Q 0.921 -0.304 0.868 -0.362 Q 0.8290000000000001 -0.405 0.773 -0.41000000000000003 L 0.761 -0.41000000000000003 Q 0.635 -0.41000000000000003 0.539 -0.246 Q 0.537 -0.242 0.534 -0.23700000000000002 M 0.465 -0.194 L 0.465 -0.194 L 0.369 -0.317 L 0.368 -0.318 L 0.364 -0.322 Q 0.298 -0.394 0.232 -0.394 Q 0.16 -0.394 0.113 -0.329 Q 0.078 -0.28 0.078 -0.215 Q 0.078 -0.127 0.131 -0.069 Q 0.17400000000000002 -0.021 0.23800000000000002 -0.021 Q 0.364 -0.021 0.46 -0.185 Q 0.462 -0.189 0.465 -0.194 Z"/></g><g transform="translate(17.912206349802393,19.942857142857143)"><path fill="rgb(0,0,0)" stroke="none" paint-order="stroke fill markers" d=" M 0.687 -0.327 L 0.09 -0.327 Q 0.058 -0.327 0.056 -0.34700000000000003 Q 0.056 -0.367 0.089 -0.367 L 0.6880000000000001 -0.367 Q 0.72 -0.367 0.721 -0.34700000000000003 Q 0.721 -0.327 0.687 -0.327 M 0.6880000000000001 -0.133 L 0.089 -0.133 Q 0.057 -0.133 0.056 -0.153 Q 0.056 -0.17300000000000001 0.09 -0.17300000000000001 L 0.687 -0.17300000000000001 Q 0.719 -0.17300000000000001 0.721 -0.153 Q 0.721 -0.133 0.6880000000000001 -0.133 Z"/></g><g transform="translate(18.96798412758017,19.942857142857143)"><path fill="rgb(0,0,0)" stroke="none" paint-order="stroke fill markers" d=" M 0.449 -0.17400000000000002 L 0.449 -0.17400000000000002 L 0.421 0 L 0.05 0 Q 0.05 -0.025 0.056 -0.032 L 0.061 -0.037 L 0.253 -0.251 Q 0.358 -0.369 0.358 -0.47200000000000003 Q 0.358 -0.561 0.304 -0.607 L 0.303 -0.608 L 0.302 -0.608 Q 0.27 -0.635 0.224 -0.635 Q 0.152 -0.635 0.109 -0.5730000000000001 Q 0.097 -0.555 0.089 -0.533 Q 0.092 -0.534 0.10200000000000001 -0.534 Q 0.14200000000000002 -0.534 0.153 -0.498 L 0.153 -0.497 Q 0.155 -0.49 0.155 -0.482 Q 0.155 -0.442 0.117 -0.431 Q 0.109 -0.429 0.10300000000000001 -0.429 Q 0.066 -0.429 0.054 -0.46 Q 0.05 -0.47100000000000003 0.05 -0.485 Q 0.05 -0.562 0.109 -0.617 Q 0.162 -0.666 0.23700000000000002 -0.666 Q 0.34700000000000003 -0.666 0.40800000000000003 -0.592 Q 0.443 -0.549 0.448 -0.49 Q 0.449 -0.481 0.449 -0.47200000000000003 Q 0.449 -0.399 0.394 -0.333 Q 0.365 -0.299 0.304 -0.243 L 0.243 -0.189 L 0.233 -0.18 L 0.127 -0.077 L 0.307 -0.077 Q 0.395 -0.077 0.402 -0.085 Q 0.41200000000000003 -0.099 0.424 -0.17400000000000002 L 0.449 -0.17400000000000002 Z"/></g><g transform="translate(19.46798412758017,19.942857142857143)"><path fill="rgb(0,0,0)" stroke="none" paint-order="stroke fill markers" d=" M 0.46 -0.32 Q 0.46 -0.17400000000000002 0.423 -0.094 Q 0.364 0.018000000000000002 0.249 0.022 Q 0.158 0.022 0.10300000000000001 -0.05 Q 0.092 -0.063 0.084 -0.079 Q 0.039 -0.162 0.039 -0.32 Q 0.039 -0.467 0.076 -0.547 Q 0.126 -0.659 0.23800000000000002 -0.666 L 0.25 -0.666 Q 0.339 -0.666 0.395 -0.595 L 0.395 -0.594 Q 0.40900000000000003 -0.5760000000000001 0.42 -0.554 Q 0.46 -0.46900000000000003 0.46 -0.32 M 0.249 0 L 0.249 0 Q 0.312 0 0.34600000000000003 -0.061 Q 0.36 -0.088 0.366 -0.125 Q 0.377 -0.189 0.377 -0.332 Q 0.377 -0.47100000000000003 0.367 -0.527 Q 0.34900000000000003 -0.622 0.275 -0.641 Q 0.262 -0.644 0.249 -0.644 Q 0.179 -0.644 0.147 -0.5740000000000001 Q 0.136 -0.55 0.13 -0.516 Q 0.122 -0.462 0.122 -0.332 Q 0.122 -0.181 0.133 -0.121 Q 0.151 -0.025 0.221 -0.004 Q 0.23500000000000001 0 0.249 0 Z"/></g><g transform="translate(19.96798412758017,19.942857142857143)"><path fill="rgb(0,0,0)" stroke="none" paint-order="stroke fill markers" d=" M 0.46 -0.32 Q 0.46 -0.17400000000000002 0.423 -0.094 Q 0.364 0.018000000000000002 0.249 0.022 Q 0.158 0.022 0.10300000000000001 -0.05 Q 0.092 -0.063 0.084 -0.079 Q 0.039 -0.162 0.039 -0.32 Q 0.039 -0.467 0.076 -0.547 Q 0.126 -0.659 0.23800000000000002 -0.666 L 0.25 -0.666 Q 0.339 -0.666 0.395 -0.595 L 0.395 -0.594 Q 0.40900000000000003 -0.5760000000000001 0.42 -0.554 Q 0.46 -0.46900000000000003 0.46 -0.32 M 0.249 0 L 0.249 0 Q 0.312 0 0.34600000000000003 -0.061 Q 0.36 -0.088 0.366 -0.125 Q 0.377 -0.189 0.377 -0.332 Q 0.377 -0.47100000000000003 0.367 -0.527 Q 0.34900000000000003 -0.622 0.275 -0.641 Q 0.262 -0.644 0.249 -0.644 Q 0.179 -0.644 0.147 -0.5740000000000001 Q 0.136 -0.55 0.13 -0.516 Q 0.122 -0.462 0.122 -0.332 Q 0.122 -0.181 0.133 -0.121 Q 0.151 -0.025 0.221 -0.004 Q 0.23500000000000001 0 0.249 0 Z"/></g><g transform="translate(20.46798412758017,19.529965142857144) scale(0.7,0.7)"><path fill="rgb(0,0,0)" stroke="none" paint-order="stroke fill markers" d=" M 0.47100000000000003 -0.214 L 0.47100000000000003 -0.214 Q 0.47100000000000003 -0.111 0.395 -0.044 Q 0.332 0.011 0.249 0.011 Q 0.153 0.011 0.08700000000000001 -0.061 Q 0.028 -0.126 0.028 -0.214 Q 0.028 -0.316 0.101 -0.386 Q 0.164 -0.448 0.25 -0.448 Q 0.34700000000000003 -0.448 0.41300000000000003 -0.371 Q 0.47100000000000003 -0.304 0.47100000000000003 -0.214 M 0.25 -0.014 L 0.25 -0.014 Q 0.317 -0.014 0.356 -0.07 L 0.366 -0.088 Q 0.388 -0.132 0.388 -0.222 Q 0.388 -0.318 0.362 -0.361 Q 0.319 -0.423 0.249 -0.426 Q 0.187 -0.426 0.147 -0.376 Q 0.14 -0.368 0.135 -0.359 Q 0.111 -0.315 0.111 -0.222 Q 0.111 -0.125 0.136 -0.081 Q 0.178 -0.016 0.25 -0.014 Z"/></g><g transform="translate(20.832216470578743,19.942857142857143)"><path fill="rgb(0,0,0)" stroke="none" paint-order="stroke fill markers" d=" M 0.665 -0.681 L 0.665 -0.444 Q 0.665 -0.423 0.659 -0.421 L 0.659 -0.421 Q 0.656 -0.42 0.649 -0.42 Q 0.636 -0.42 0.634 -0.429 Q 0.634 -0.431 0.633 -0.437 Q 0.614 -0.5760000000000001 0.525 -0.639 Q 0.47500000000000003 -0.674 0.41500000000000004 -0.674 Q 0.329 -0.674 0.262 -0.618 Q 0.246 -0.604 0.232 -0.588 L 0.231 -0.587 Q 0.159 -0.5 0.159 -0.341 Q 0.159 -0.111 0.306 -0.036000000000000004 Q 0.36 -0.009000000000000001 0.41600000000000004 -0.009000000000000001 Q 0.513 -0.009000000000000001 0.578 -0.08 Q 0.635 -0.14200000000000002 0.64 -0.234 Q 0.641 -0.249 0.652 -0.25 Q 0.665 -0.25 0.665 -0.233 Q 0.665 -0.14 0.598 -0.065 Q 0.521 0.022 0.404 0.022 Q 0.269 0.022 0.169 -0.074 Q 0.064 -0.17400000000000002 0.057 -0.322 Q 0.056 -0.332 0.056 -0.342 Q 0.056 -0.49 0.156 -0.596 Q 0.251 -0.6970000000000001 0.384 -0.704 Q 0.394 -0.705 0.404 -0.705 Q 0.496 -0.705 0.5710000000000001 -0.636 L 0.588 -0.619 L 0.638 -0.6930000000000001 Q 0.646 -0.705 0.654 -0.705 Q 0.664 -0.6960000000000001 0.665 -0.681 Z"/></g></g></g></g></g></svg>